<svg xmlns="http://www.w3.org/2000/svg" width="1162.390625px" height="531.03125px" class="sequence hand"><desc></desc><defs><marker viewBox="0 0 5 5" markerWidth="5" markerHeight="5" orient="auto" refX="5" refY="2.5" id="markerArrowBlock"><path d="M 0 0 L 5 2.5 L 0 5 z"/></marker><marker viewBox="0 0 9.6 16" markerWidth="4" markerHeight="16" orient="auto" refX="9.6" refY="8" id="markerArrowOpen"><path d="M 9.6,8 1.92,16 0,13.7 5.76,8 0,2.286 1.92,0 9.6,8 z"/></marker></defs><g class="title"/><g class="actor"><path d="M10,20C23.3,22.2 18.9,17.8 65.4,20.0C63.7,52.3 67.1,54.9 65.4,62.5C32.8,64.7 23.3,60.3 10.0,62.5C8.3,52.3 11.7,41.4 10.0,20.0" stroke="#000000" fill="#ffffff" style="stroke-width: 2;"/><text x="20" y="44.171875" style="font-size: 16px; font-family: danielbd;"><tspan x="20">App</tspan></text></g><g class="actor"><path d="M10,468.515625C47.4,466.3 48.4,470.7 65.4,468.5C63.7,488.2 67.1,504.2 65.4,511.0C49.2,508.8 51.0,513.2 10.0,511.0C8.3,504.2 11.7,479.1 10.0,468.5" stroke="#000000" fill="#ffffff" style="stroke-width: 2;"/><text x="20" y="492.6875" style="font-size: 16px; font-family: danielbd;"><tspan x="20">App</tspan></text></g><path d="M37.7,62.5C53.9,348.8 21.5,160.0 37.7,468.5" stroke="#000000" fill="none" style="stroke-width: 2;"/><g class="actor"><path d="M102.671875,20C164.8,27.0 149.9,13.0 278.0,20.0C279.7,49.4 276.3,52.0 278.0,62.5C249.9,69.5 178.0,55.5 102.7,62.5C101.0,30.3 104.4,46.3 102.7,20.0" stroke="#000000" fill="#ffffff" style="stroke-width: 2;"/><text x="112.671875" y="44.171875" style="font-size: 16px; font-family: danielbd;"><tspan x="112.671875">convertFromItems</tspan></text></g><g class="actor"><path d="M102.671875,468.515625C249.9,475.5 235.9,461.5 278.0,468.5C279.7,482.5 276.3,497.6 278.0,511.0C213.5,518.0 147.9,504.0 102.7,511.0C104.4,478.7 101.0,497.8 102.7,468.5" stroke="#000000" fill="#ffffff" style="stroke-width: 2;"/><text x="112.671875" y="492.6875" style="font-size: 16px; font-family: danielbd;"><tspan x="112.671875">convertFromItems</tspan></text></g><path d="M190.3,62.5C206.6,367.1 174.1,262.4 190.3,468.5" stroke="#000000" fill="none" style="stroke-width: 2;"/><g class="actor"><path d="M297.96875,20C324.8,24.2 385.6,15.8 402.3,20.0C400.6,27.8 404.0,46.8 402.3,62.5C323.0,58.3 374.6,66.7 298.0,62.5C296.3,30.2 299.7,26.8 298.0,20.0" stroke="#000000" fill="#ffffff" style="stroke-width: 2;"/><text x="307.96875" y="44.171875" style="font-size: 16px; font-family: danielbd;"><tspan x="307.96875">items.map</tspan></text></g><g class="actor"><path d="M297.96875,468.515625C314.7,472.7 356.9,464.3 402.3,468.5C404.0,501.0 400.6,483.1 402.3,511.0C382.8,515.2 337.3,506.9 298.0,511.0C299.7,504.2 296.3,475.3 298.0,468.5" stroke="#000000" fill="#ffffff" style="stroke-width: 2;"/><text x="307.96875" y="492.6875" style="font-size: 16px; font-family: danielbd;"><tspan x="307.96875">items.map</tspan></text></g><path d="M350.2,62.5C366.4,314.9 333.9,158.0 350.2,468.5" stroke="#000000" fill="none" style="stroke-width: 2;"/><g class="actor"><path d="M466.296875,20C531.7,23.4 491.5,16.6 552.4,20.0C550.7,30.2 554.1,33.3 552.4,62.5C489.2,59.1 531.7,66.0 466.3,62.5C468.0,45.6 464.6,36.3 466.3,20.0" stroke="#000000" fill="#ffffff" style="stroke-width: 2;"/><text x="476.296875" y="44.171875" style="font-size: 16px; font-family: danielbd;"><tspan x="476.296875">Factory</tspan></text></g><g class="actor"><path d="M466.296875,468.515625C521.3,465.1 492.0,472.0 552.4,468.5C554.1,496.8 550.7,475.3 552.4,511.0C492.1,514.5 513.4,507.6 466.3,511.0C464.6,481.2 468.0,500.8 466.3,468.5" stroke="#000000" fill="#ffffff" style="stroke-width: 2;"/><text x="476.296875" y="492.6875" style="font-size: 16px; font-family: danielbd;"><tspan x="476.296875">Factory</tspan></text></g><path d="M509.3,62.5C525.6,214.7 493.1,403.6 509.3,468.5" stroke="#000000" fill="none" style="stroke-width: 2;"/><g class="actor"><path d="M572.359375,20C608.6,10.9 626.8,29.1 799.2,20.0C800.9,30.2 797.5,52.3 799.2,62.5C693.5,53.4 619.2,71.6 572.4,62.5C570.7,52.3 574.1,30.2 572.4,20.0" stroke="#000000" fill="#ffffff" style="stroke-width: 2;"/><text x="582.359375" y="44.171875" style="font-size: 16px; font-family: danielbd;"><tspan x="582.359375">Type Specific Processor</tspan></text></g><g class="actor"><path d="M572.359375,468.515625C654.2,459.4 713.4,477.6 799.2,468.5C797.5,478.3 800.9,479.5 799.2,511.0C744.7,520.1 626.8,502.0 572.4,511.0C574.1,478.7 570.7,482.6 572.4,468.5" stroke="#000000" fill="#ffffff" style="stroke-width: 2;"/><text x="582.359375" y="492.6875" style="font-size: 16px; font-family: danielbd;"><tspan x="582.359375">Type Specific Processor</tspan></text></g><path d="M685.8,62.5C702.0,127.5 669.5,160.0 685.8,468.5" stroke="#000000" fill="none" style="stroke-width: 2;"/><g class="signal"><text x="84.2734375" y="90.4296875" style="font-size: 16px; font-family: danielbd;"><tspan x="84.2734375">items[]</tspan></text><path d="M37.7,105.0C65.3,111.1 121.8,98.9 190.3,105.0" stroke="#000000" fill="none" style="stroke-width: 2; marker-end: url(&quot;#markerArrowBlock&quot;);"/></g><g class="signal"><text x="270.23828125" y="130.03125" style="font-size: 16px; font-family: danielbd;"><tspan x="270.23828125"/></text><path d="M190.3,125.0C256.8,118.6 290.0,131.4 350.2,125.0" stroke="#000000" fill="none" style="stroke-width: 2; marker-end: url(&quot;#markerArrowBlock&quot;);"/></g><g class="signal"><text x="409.6484375" y="152.9453125" style="font-size: 16px; font-family: danielbd;"><tspan x="409.6484375">IItem</tspan></text><path d="M350.2,167.5C453.2,173.9 403.9,161.2 509.3,167.5" stroke="#000000" fill="none" style="stroke-width: 2; marker-end: url(&quot;#markerArrowBlock&quot;);"/></g><g class="signal"><text x="360.15625" y="195.4609375" style="font-size: 16px; font-family: danielbd;"><tspan x="360.15625">Processor Class</tspan></text><path d="M509.3,210.1C388.4,216.4 420.8,203.7 350.2,210.1" stroke="#000000" fill="none" style="stroke-width: 2; marker-end: url(&quot;#markerArrowBlock&quot;);"/></g><g class="signal"><text x="436.16796875" y="237.9765625" style="font-size: 16px; font-family: danielbd;"><tspan x="436.16796875">convertToTemplate</tspan></text><path d="M350.2,252.6C513.8,239.2 555.4,266.0 685.8,252.6" stroke="#000000" fill="none" style="stroke-width: 2; marker-end: url(&quot;#markerArrowBlock&quot;);"/></g><g class="note"><path d="M705.7578125,272.578125C811.2,260.8 814.6,284.3 999.0,272.6C1001.8,326.5 996.2,289.6 999.0,343.5C882.7,331.8 776.1,355.2 705.8,343.5C702.9,291.2 708.6,306.2 705.8,272.6" stroke="#000000" fill="#ffffff" style="stroke-width: 2;"/><text x="710.7578125" y="291.75" style="font-size: 16px; font-family: danielbd;"><tspan x="710.7578125">Processor makes whatever</tspan><tspan dy="1.2em" x="710.7578125">calls are needed to fetch</tspan><tspan dy="1.2em" x="710.7578125">data, resources, relationships etc</tspan></text></g><g class="signal"><text x="458.83203125" y="371.3984375" style="font-size: 16px; font-family: danielbd;"><tspan x="458.83203125">IItemTemplate</tspan></text><path d="M685.8,386.0C605.2,399.4 632.1,372.6 350.2,386.0" stroke="#000000" fill="none" style="stroke-width: 2; marker-end: url(&quot;#markerArrowBlock&quot;);"/></g><g class="signal"><text x="270.23828125" y="411" style="font-size: 16px; font-family: danielbd;"><tspan x="270.23828125"/></text><path d="M350.2,406.0C228.7,399.6 233.9,412.4 190.3,406.0" stroke="#000000" fill="none" style="stroke-width: 2; marker-end: url(&quot;#markerArrowBlock&quot;);"/></g><g class="signal"><text x="47.6953125" y="433.9140625" style="font-size: 16px; font-family: danielbd;"><tspan x="47.6953125">IItemTemplate[]</tspan></text><path d="M190.3,448.5C153.7,442.4 165.9,454.6 37.7,448.5" stroke="#000000" fill="none" style="stroke-width: 2; marker-end: url(&quot;#markerArrowBlock&quot;);"/></g></svg>